<svg width="44" height="38" viewBox="0 0 44 38" fill="none" xmlns="http://www.w3.org/2000/svg">
<path fill-rule="evenodd" clip-rule="evenodd" d="M0 0V37.3333H29.8493V34.6667H2.66667V2.66667H38.6667V5.49333H41.3333V0H0ZM41.3333 13.3333C41.3333 14.0406 41.0524 14.7189 40.5523 15.219C40.0522 15.719 39.3739 16 38.6667 16C37.9594 16 37.2811 15.719 36.781 15.219C36.281 14.7189 36 14.0406 36 13.3333C36 12.6261 36.281 11.9478 36.781 11.4477C37.2811 10.9476 37.9594 10.6667 38.6667 10.6667C39.3739 10.6667 40.0522 10.9476 40.5523 11.4477C41.0524 11.9478 41.3333 12.6261 41.3333 13.3333ZM44 13.3333C44 14.7478 43.4381 16.1044 42.4379 17.1046C41.4377 18.1048 40.0812 18.6667 38.6667 18.6667C37.2522 18.6667 35.8956 18.1048 34.8954 17.1046C33.8952 16.1044 33.3333 14.7478 33.3333 13.3333C33.3333 11.9188 33.8952 10.5623 34.8954 9.5621C35.8956 8.5619 37.2522 8 38.6667 8C40.0812 8 41.4377 8.5619 42.4379 9.5621C43.4381 10.5623 44 11.9188 44 13.3333Z" fill="#2D81F7"/>
</svg>
