<svg width="36" height="26" viewBox="0 0 36 26" fill="none" xmlns="http://www.w3.org/2000/svg">
<path fill-rule="evenodd" clip-rule="evenodd" d="M0.834984 13.913C-0.323016 13.063 -0.267016 11.264 0.940984 10.493L16.885 0.305002C17.1941 0.106153 17.5537 6.67083e-06 17.9213 -0.000879416C18.2888 -0.0017655 18.6489 0.102646 18.959 0.300002L35.052 10.487C36.269 11.257 36.325 13.067 35.157 13.917L19.066 25.627C18.38 26.127 17.465 26.124 16.78 25.622L0.834984 13.912V13.913ZM2.01798 12.177L17.925 2.014L33.982 12.178L33.987 12.181L33.988 12.184C33.9957 12.1999 33.9998 12.2173 34 12.235C34.0008 12.2539 33.9974 12.2726 33.99 12.29C33.9899 12.2919 33.9892 12.2936 33.988 12.295L33.981 12.301L17.926 23.982L2.01898 12.301C2.01641 12.2993 2.01406 12.2973 2.01198 12.295L2.00898 12.289C2.00206 12.2719 1.99899 12.2534 1.99998 12.235C2.00018 12.2173 2.00428 12.1999 2.01198 12.184L2.01298 12.181L2.01798 12.177Z" fill="white"/>
</svg>
