<svg width="36" height="17" viewBox="0 0 36 17" fill="none" xmlns="http://www.w3.org/2000/svg">
<path d="M2.23698 0.663996L3.96498 1.934L2.01798 3.177C2.0162 3.17818 2.01453 3.17952 2.01298 3.181L2.01198 3.184C2.00442 3.1996 2.00032 3.21666 1.99998 3.234C1.99885 3.25426 2.00262 3.2745 2.01098 3.293C2.01128 3.29368 2.01161 3.29435 2.01198 3.295L2.01898 3.301L17.926 14.982L33.981 3.301L33.988 3.295L33.989 3.293L33.991 3.29C33.998 3.27256 34.0011 3.25377 34 3.235C33.9998 3.21732 33.9957 3.1999 33.988 3.184L33.987 3.181L33.982 3.178L32.002 1.924L33.742 0.658997L35.052 1.488C36.269 2.258 36.325 4.068 35.157 4.918L19.066 16.627C18.38 17.127 17.465 17.124 16.78 16.622L0.834984 4.912C-0.323016 4.062 -0.267016 2.264 0.940984 1.492L2.23698 0.663996Z" fill="white"/>
</svg>
