<svg width="29" height="28" viewBox="0 0 29 28" fill="none" xmlns="http://www.w3.org/2000/svg">
<path fill-rule="evenodd" clip-rule="evenodd" d="M13.124 1.10667C13.8676 0.396814 14.856 0.000513135 15.884 0H21.3267C23.2787 0 25.096 0.664 26.496 1.98667C27.8427 3.25867 28.544 4.88933 28.8307 6.43467C29.2813 8.864 28.8147 11.5187 27.6667 13.872V24.6667C27.6667 25.5032 27.3522 26.3091 26.7857 26.9245C26.2191 27.5399 25.4419 27.9198 24.6083 27.9888C23.7746 28.0578 22.9455 27.8108 22.2855 27.2969C21.6255 26.783 21.1828 26.0398 21.0453 25.2147L20.3333 20.9427L19.6213 25.2147C19.4838 26.0398 19.0412 26.783 18.3811 27.2969C17.7211 27.8108 16.892 28.0578 16.0584 27.9888C15.2248 27.9198 14.4475 27.5399 13.881 26.9245C13.3144 26.3091 13 25.5032 13 24.6667V12.124C12.3919 12.4751 11.7021 12.66 11 12.66H4.19733C3.13646 12.66 2.11904 12.2386 1.3689 11.4884C0.618754 10.7383 0.197327 9.72087 0.197327 8.66C0.197327 7.59914 0.618754 6.58172 1.3689 5.83157C2.11904 5.08143 3.13646 4.66 4.19733 4.66H9.39733L13.124 1.10533V1.10667ZM15.6667 16.6333V24.6667C15.6671 24.8337 15.7302 24.9944 15.8435 25.1171C15.9568 25.2398 16.112 25.3155 16.2785 25.3293C16.4449 25.343 16.6104 25.2938 16.7423 25.1913C16.8742 25.0889 16.9628 24.9407 16.9907 24.776L18.3813 16.4347C18.4331 16.1233 18.5936 15.8405 18.8343 15.6363C19.0751 15.4322 19.3804 15.3201 19.696 15.32H20.9707C21.2863 15.3201 21.5916 15.4322 21.8323 15.6363C22.073 15.8405 22.2336 16.1233 22.2853 16.4347L23.676 24.776C23.7038 24.9407 23.7925 25.0889 23.9243 25.1913C24.0562 25.2938 24.2218 25.343 24.3882 25.3293C24.5546 25.3155 24.7098 25.2398 24.8231 25.1171C24.9364 24.9944 24.9995 24.8337 25 24.6667V13.5547C25 13.3412 25.0512 13.1309 25.1493 12.9413C26.1787 10.9547 26.5533 8.77733 26.2093 6.92133C26 5.79333 25.5107 4.724 24.6653 3.92533C23.8027 3.11067 22.6587 2.66667 21.3267 2.66667H15.8853C15.5427 2.66667 15.212 2.79867 14.964 3.03467L10.852 6.95733C10.6042 7.19411 10.2747 7.32638 9.93199 7.32667H4.19733C3.8437 7.32667 3.50457 7.46714 3.25452 7.71719C3.00447 7.96724 2.86399 8.30638 2.86399 8.66C2.86399 9.01362 3.00447 9.35276 3.25452 9.60281C3.50457 9.85286 3.8437 9.99333 4.19733 9.99333H11C11.3427 9.99304 11.6722 9.86078 11.92 9.624L13.4133 8.2C13.6023 8.0199 13.8399 7.89921 14.0968 7.8529C14.3536 7.80659 14.6185 7.83669 14.8584 7.93948C15.0983 8.04226 15.3028 8.21321 15.4465 8.43112C15.5901 8.64903 15.6667 8.90432 15.6667 9.16533V16.6347V16.6333Z" fill="#2D81F7"/>
</svg>
